<?xml version="1.0" standalone="no"?><!DOCTYPE svg PUBLIC "-//W3C//DTD SVG 1.1//EN" "http://www.w3.org/Graphics/SVG/1.1/DTD/svg11.dtd"><svg t="1599030486598" class="icon" viewBox="0 0 1024 1024" version="1.1" xmlns="http://www.w3.org/2000/svg" p-id="2178" xmlns:xlink="http://www.w3.org/1999/xlink" width="200" height="200"><defs><style type="text/css"></style></defs><path d="M272 356h320c44.184 0 80 35.818 80 80v320c0 44.184-35.816 80-80 80H272c-44.182 0-80-35.816-80-80V436c0-44.182 35.818-80 80-80z" fill="#DFECFD" p-id="2179"></path><path d="M432 196h320c44.184 0 80 35.818 80 80v320c0 44.184-35.816 80-80 80H432c-44.182 0-80-35.816-80-80V276c0-44.182 35.818-80 80-80z" fill="#4988FD" p-id="2180"></path><path d="M690 466h-196c-16.568 0-30-13.432-30-30s13.432-30 30-30h196c16.568 0 30 13.432 30 30s-13.432 30-30 30z" fill="#DFECFD" p-id="2181"></path><path d="M592 563.852c-16.568 0-30-13.432-30-30v-195.702c0-16.568 13.432-30 30-30s30 13.432 30 30v195.702c0 16.568-13.432 30-30 30z" fill="#DFECFD" p-id="2182"></path></svg>