<?xml version="1.0" standalone="no"?><!DOCTYPE svg PUBLIC "-//W3C//DTD SVG 1.1//EN" "http://www.w3.org/Graphics/SVG/1.1/DTD/svg11.dtd"><svg t="1599034615417" class="icon" viewBox="0 0 1024 1024" version="1.1" xmlns="http://www.w3.org/2000/svg" p-id="3029" xmlns:xlink="http://www.w3.org/1999/xlink" width="200" height="200"><defs><style type="text/css"></style></defs><path d="M332 196h360c55.228 0 100 44.772 100 100v440c0 55.228-44.772 100-100 100H332c-55.228 0-100-44.772-100-100V296c0-55.228 44.772-100 100-100z" fill="#4988FD" p-id="3030"></path><path d="M692 836H332c-55.14 0-100-44.86-100-100V296c0-55.14 44.86-100 100-100h360c55.14 0 100 44.86 100 100v440c0 55.14-44.86 100-100 100zM332 256c-22.056 0-40 17.944-40 40v440c0 22.056 17.944 40 40 40h360c22.056 0 40-17.944 40-40V296c0-22.056-17.944-40-40-40H332z" fill="#4988FD" p-id="3031"></path><path d="M412 590h200v60H412zM412 502h200v60H412z" fill="#DFECFD" p-id="3032"></path><path d="M482 516h60v210h-60z" fill="#DFECFD" p-id="3033"></path><path d="M372 294h280v60H372z" fill="#FFFFFF" p-id="3034"></path><path d="M452.19 413.758l81.022 81.02-42.426 42.428-81.02-81.022z" fill="#DFECFD" p-id="3035"></path><path d="M571.81 413.758l42.426 42.426-81.022 81.02-42.426-42.424z" fill="#DFECFD" p-id="3036"></path></svg>