<?xml version="1.0" standalone="no"?><!DOCTYPE svg PUBLIC "-//W3C//DTD SVG 1.1//EN" "http://www.w3.org/Graphics/SVG/1.1/DTD/svg11.dtd"><svg t="1599034655262" class="icon" viewBox="0 0 1024 1024" version="1.1" xmlns="http://www.w3.org/2000/svg" p-id="3882" xmlns:xlink="http://www.w3.org/1999/xlink" width="200" height="200"><defs><style type="text/css"></style></defs><path d="M252 436h180c33.136 0 60 26.864 60 60v280c0 33.136-26.864 60-60 60h-180c-33.136 0-60-26.864-60-60V496c0-33.136 26.864-60 60-60z" fill="#DFECFD" p-id="3883"></path><path d="M672 196H412c-33.136 0-60 26.864-60 60v520c0 33.136 26.864 60 60 60h360c33.136 0 60-26.864 60-60V356c-110.858-110.648-160-160-160-160z" fill="#4988FD" p-id="3884"></path><path d="M672 196l160 160h-160V196z" fill="#DFECFD" p-id="3885"></path><path d="M832 357h-160a1 1 0 0 1-1-1V196a1 1 0 0 1 1.708-0.708l160 160a0.998 0.998 0 0 1-0.708 1.708z m-159-2h156.586L673 198.414V355z" fill="#DFECFD" p-id="3886"></path><path d="M516 386h-89.216c-16.568 0-30-13.432-30-30s13.432-30 30-30H516c16.568 0 30 13.432 30 30s-13.432 30-30 30zM758 706h-38.284c-16.568 0-30-13.432-30-30s13.432-30 30-30H758c16.568 0 30 13.432 30 30s-13.432 30-30 30zM631.268 706H426.784c-16.568 0-30-13.432-30-30s13.432-30 30-30h204.484c16.568 0 30 13.432 30 30s-13.432 30-30 30zM428 436h330c16.568 0 30 13.432 30 30v62c0 16.568-13.432 30-30 30H428c-16.568 0-30-13.432-30-30v-62c0-16.568 13.432-30 30-30z" fill="#FFFFFF" p-id="3887"></path></svg>