<?xml version="1.0" standalone="no"?><!DOCTYPE svg PUBLIC "-//W3C//DTD SVG 1.1//EN" "http://www.w3.org/Graphics/SVG/1.1/DTD/svg11.dtd"><svg t="1599032036678" class="icon" viewBox="0 0 1024 1024" version="1.1" xmlns="http://www.w3.org/2000/svg" p-id="2318" xmlns:xlink="http://www.w3.org/1999/xlink" width="200" height="200"><defs><style type="text/css"></style></defs><path d="M272 196h140c44.182 0 80 35.818 80 80v140c0 44.182-35.818 80-80 80h-140c-44.182 0-80-35.818-80-80v-140c0-44.182 35.818-80 80-80z" fill="#4988FD" p-id="2319"></path><path d="M612 196h140c44.184 0 80 35.818 80 80v140c0 44.182-35.816 80-80 80h-140c-44.184 0-80-35.818-80-80v-140c0-44.182 35.816-80 80-80z" fill="#DFECFD" p-id="2320"></path><path d="M272 536h140c44.182 0 80 35.816 80 80v140c0 44.184-35.818 80-80 80h-140c-44.182 0-80-35.816-80-80v-140c0-44.184 35.818-80 80-80zM612 536h140c44.184 0 80 35.816 80 80v140c0 44.184-35.816 80-80 80h-140c-44.184 0-80-35.816-80-80v-140c0-44.184 35.816-80 80-80z" fill="#4988FD" p-id="2321"></path></svg>